<?xml version="1.0" encoding="UTF-8"?>
<svg id="Layer_1" data-name="Layer 1" xmlns="http://www.w3.org/2000/svg" viewBox="0 0 2000 1450">
  <defs>
    <style>
      .cls-1, .cls-2 {
        fill: #fff;
      }

      .cls-3 {
        font-size: 167.71px;
      }

      .cls-2 {
        font-family: Poppins-SemiBold, Poppins;
        font-weight: 600;
      }

      .cls-4 {
        font-size: 251.56px;
      }
    </style>
  </defs>
  <rect width="2000" height="1450"/>
  <g>
    <g>
      <path class="cls-1" d="M1102.84,331.49c-.35-2.65-.87-5.29-1.52-7.9-3.6-14.37-10.76-26.95-21.53-37.71l-79.77-79.77-308.4,308.4,79.77,79.77c15.75,15.75,32.77,26.65,51.04,32.72,4.04,1.35,8.16,2.43,12.33,3.3,23,4.73,45.35,3.43,67.05-3.91s40.75-19.23,57.2-35.67c16.23-16.19,27.95-34.76,35.24-55.77,7.25-21.01,8.42-42.88,3.39-65.58-2.65-12.07-7.38-23.7-14.24-34.98.65.26,1.3.52,2,.74,14.67,4.9,29.69,5.38,45.05,1.48,15.32-3.95,29.69-12.59,43.05-25.95,13.11-13.11,21.92-27.3,26.43-42.58,3.69-12.5,4.64-24.69,2.91-36.59ZM979.19,527.96c-6.68,18.79-17.49,35.63-32.42,50.52-15.15,15.15-32.38,26.17-51.69,33.11-19.31,6.9-38.97,8.29-59.02,4.17-20.05-4.08-38.37-14.45-55.03-31.12l-67.53-67.53,169.61-169.61,63.15,63.1c1.48,1.48,2.99,2.91,4.51,4.3l-.13.13c17.32,17.27,28.08,35.76,32.25,55.38,4.21,19.62,2.99,38.8-3.69,57.55ZM1088.65,344.07c-1.04,19.01-10.16,37.11-27.39,54.34-17.75,17.75-35.98,26.34-54.73,25.87-18.75-.52-35.63-8.29-50.65-23.31l-63.15-63.1,108.24-108.24,1.61-1.65,67.57,67.53c4.38,4.43,8.03,9.11,10.81,14.15,5.82,10.2,8.38,21.66,7.68,34.42Z"/>
      <path class="cls-1" d="M1230.74,436.82c-17.45-17.45-36.5-28.99-57.07-34.46-2.08-.61-4.17-1.09-6.29-1.52-23-4.77-45.31-3.47-67.05,3.91-21.66,7.33-40.75,19.23-57.2,35.68-16.19,16.19-27.95,34.76-35.2,55.77-7.29,20.96-8.42,42.84-3.43,65.58,2.65,12.07,7.38,23.74,14.28,34.98-.65-.26-1.3-.52-2-.74-14.71-4.9-29.69-5.38-45.05-1.48-15.36,3.95-29.73,12.59-43.1,25.95-13.11,13.11-21.87,27.3-26.39,42.58-4.21,14.28-4.9,28.17-2.04,41.71.17.91.39,1.87.61,2.78,3.6,14.37,10.76,26.91,21.53,37.67l79.81,79.81,308.4-308.4-79.81-79.81ZM1022.98,503.13c6.68-18.75,17.49-35.59,32.38-50.47,15.15-15.19,32.42-26.21,51.69-33.11,19.31-6.9,39.02-8.29,59.02-4.21,12.54,2.56,24.39,7.6,35.63,15.06l.04.04c6.68,4.47,13.15,9.81,19.36,16.01l67.57,67.57-1.65,1.65-167.96,168-63.19-63.19c-1.48-1.48-2.99-2.91-4.51-4.25l.13-.13c-17.32-17.32-28.04-35.76-32.25-55.38-4.21-19.62-2.95-38.8,3.73-57.59ZM913.48,687.02c1.04-18.97,10.2-37.11,27.39-54.29,17.75-17.75,36.02-26.34,54.73-25.87,18.79.52,35.68,8.29,50.65,23.26l63.19,63.19-109.89,109.85-67.57-67.57c-13.37-13.37-19.53-29.56-18.49-48.56Z"/>
      <path class="cls-1" d="M1000.02,206.1l-308.4,308.4-2.17,2.13,310.57,310.53,310.53-310.53-310.53-310.53ZM1110.35,694.23l-110.32,110.37-99.82-99.82-77.77-77.77-110.37-110.37,287.96-287.96.95.95,79.99,80.03,21.87,21.83,70.83,70.87,28.04,28.04.04.04,85.28,85.24.91.95-177.59,177.59Z"/>
    </g>
    <text class="cls-2" transform="translate(62.56 1094.72)"><tspan class="cls-4" x="0" y="0">Baidas </tspan><tspan class="cls-3" x="871.15" y="0">&amp;</tspan><tspan class="cls-4" x="997.44" y="0" xml:space="preserve"> Baidas</tspan></text>
  </g>
</svg>